<svg width="375" height="249" viewBox="0 0 375 249" fill="none" xmlns="http://www.w3.org/2000/svg">
<g filter="url(#filter0_d_9_31)">
<rect x="23" y="25" width="327" height="184" rx="15" fill="url(#paint0_linear_9_31)"/>
<mask id="mask0_9_31" style="mask-type:alpha" maskUnits="userSpaceOnUse" x="23" y="25" width="327" height="184">
<rect x="23" y="25" width="327" height="184" rx="15" fill="#ED713C"/>
</mask>
<g mask="url(#mask0_9_31)">
<path opacity="0.1" d="M196.69 218C196.69 227.731 192.317 238.366 181.639 249.561C170.872 260.848 154.44 271.832 132.754 281.448C89.4291 300.66 28.3151 313 -40.1448 313C-108.605 313 -169.719 300.66 -213.043 281.448C-234.729 271.832 -251.162 260.848 -261.928 249.561C-272.607 238.366 -276.979 227.731 -276.979 218C-276.979 208.269 -272.607 197.634 -261.928 186.439C-251.162 175.152 -234.729 164.168 -213.043 154.552C-169.719 135.34 -108.605 123 -40.1448 123C28.3151 123 89.4291 135.34 132.754 154.552C154.44 164.168 170.872 175.152 181.639 186.439C192.317 197.634 196.69 208.269 196.69 218Z" fill="#0D1636" stroke="#0D1636" stroke-width="36"/>
<path opacity="0.1" d="M672.531 -1.5C672.531 26.3498 651.169 55.7043 607.393 79.153C564.371 102.197 503.699 117 435.697 117C367.694 117 307.022 102.197 264 79.153C220.224 55.7043 198.862 26.3498 198.862 -1.5C198.862 -29.3498 220.224 -58.7043 264 -82.153C307.022 -105.197 367.694 -120 435.697 -120C503.699 -120 564.371 -105.197 607.393 -82.153C651.169 -58.7043 672.531 -29.3498 672.531 -1.5Z" fill="#0D1636" stroke="#0D1636" stroke-width="36"/>
</g>
<path d="M308.128 174.304C308.128 176.449 309.041 178.121 310.9 178.121C312.77 178.121 313.661 176.449 313.661 174.304C313.661 173.193 313.43 172.302 312.957 171.631C312.495 170.96 311.813 170.619 310.9 170.619C309.987 170.619 309.305 170.96 308.832 171.642C308.359 172.313 308.128 173.204 308.128 174.304ZM312.451 174.315C312.451 176.031 311.967 177.054 310.9 177.054C309.833 177.054 309.338 176.031 309.338 174.315C309.338 172.566 309.855 171.686 310.9 171.686C311.934 171.686 312.451 172.566 312.451 174.315ZM319.964 173.138C319.997 171.708 318.776 170.597 317.401 170.619C316.015 170.619 314.827 171.708 314.827 173.127C314.827 174.502 315.96 175.558 317.203 175.558C317.324 175.558 317.423 175.547 317.522 175.525L315.773 178H317.159L318.963 175.437C319.216 175.085 319.403 174.81 319.524 174.612C319.645 174.403 319.755 174.183 319.832 173.941C319.92 173.688 319.964 173.424 319.964 173.138ZM318.809 173.127C318.809 173.534 318.677 173.875 318.402 174.15C318.127 174.425 317.797 174.568 317.401 174.568C316.994 174.568 316.653 174.436 316.378 174.161C316.103 173.886 315.971 173.534 315.971 173.127C315.971 172.72 316.103 172.379 316.378 172.104C316.653 171.829 316.994 171.686 317.401 171.686C317.797 171.686 318.127 171.829 318.402 172.104C318.677 172.379 318.809 172.72 318.809 173.127ZM319.178 179.331H320.465L326.218 169.42H324.931L319.178 179.331ZM328.476 176.988L329.752 175.635C330.258 175.096 330.643 174.634 330.896 174.227C331.16 173.82 331.292 173.369 331.292 172.874C331.292 171.598 330.269 170.619 328.883 170.619C327.398 170.619 326.441 171.752 326.441 172.94C326.441 173.16 326.463 173.369 326.518 173.567H327.695C327.662 173.347 327.64 173.16 327.64 173.006C327.64 172.258 328.135 171.686 328.872 171.686C329.609 171.686 330.082 172.225 330.082 172.962C330.082 173.578 329.73 174.106 328.927 174.953L326.342 177.736V178H331.545V176.988H328.476ZM337.741 175.657C337.741 174.194 336.564 173.391 335.266 173.391C334.936 173.391 334.628 173.424 334.342 173.49V171.785H337.334V170.74H333.198V174.392H334.87C335.937 174.392 336.542 174.854 336.542 175.679C336.542 176.515 335.904 177.054 335.035 177.054C334.254 177.054 333.715 176.647 333.275 175.976L332.461 176.559C332.956 177.494 333.869 178.121 335.068 178.121C336.509 178.121 337.741 177.12 337.741 175.657Z" fill="white"/>
<path d="M91.289 132.42L88.312 133.395L88.65 134.604L90.392 134.045V141H91.77V132.42H91.289ZM96.1854 139.804L97.6934 138.205C98.2914 137.568 98.7464 137.022 99.0454 136.541C99.3574 136.06 99.5134 135.527 99.5134 134.942C99.5134 133.434 98.3044 132.277 96.6664 132.277C94.9114 132.277 93.7804 133.616 93.7804 135.02C93.7804 135.28 93.8064 135.527 93.8714 135.761H95.2624C95.2234 135.501 95.1974 135.28 95.1974 135.098C95.1974 134.214 95.7824 133.538 96.6534 133.538C97.5244 133.538 98.0834 134.175 98.0834 135.046C98.0834 135.774 97.6674 136.398 96.7184 137.399L93.6634 140.688V141H99.8124V139.804H96.1854ZM107.408 138.764C107.408 137.672 106.68 136.957 105.549 136.541C106.498 136.034 107.005 135.371 107.005 134.474C107.005 133.785 106.745 133.239 106.238 132.862C105.731 132.472 105.081 132.277 104.301 132.277C103.508 132.277 102.858 132.472 102.338 132.862C101.831 133.239 101.571 133.785 101.571 134.474C101.571 135.397 102.091 136.034 103.027 136.541C101.883 136.957 101.168 137.672 101.168 138.764C101.168 140.207 102.455 141.143 104.301 141.143C106.134 141.143 107.408 140.207 107.408 138.764ZM102.884 134.526C102.884 133.837 103.469 133.408 104.301 133.408C105.12 133.408 105.692 133.837 105.692 134.526C105.692 135.163 105.263 135.501 104.288 135.917C103.313 135.488 102.884 135.15 102.884 134.526ZM106.017 138.712C106.017 139.492 105.406 139.999 104.301 139.999C103.196 139.999 102.559 139.492 102.559 138.712C102.559 137.945 103.144 137.542 104.288 137.139C105.432 137.555 106.017 137.932 106.017 138.712ZM114.74 135.254C114.779 133.564 113.336 132.251 111.711 132.277C110.073 132.277 108.669 133.564 108.669 135.241C108.669 136.866 110.008 138.114 111.477 138.114C111.62 138.114 111.737 138.101 111.854 138.075L109.787 141H111.425L113.557 137.971C113.856 137.555 114.077 137.23 114.22 136.996C114.363 136.749 114.493 136.489 114.584 136.203C114.688 135.904 114.74 135.592 114.74 135.254ZM113.375 135.241C113.375 135.722 113.219 136.125 112.894 136.45C112.569 136.775 112.179 136.944 111.711 136.944C111.23 136.944 110.827 136.788 110.502 136.463C110.177 136.138 110.021 135.722 110.021 135.241C110.021 134.76 110.177 134.357 110.502 134.032C110.827 133.707 111.23 133.538 111.711 133.538C112.179 133.538 112.569 133.707 112.894 134.032C113.219 134.357 113.375 134.76 113.375 135.241Z" fill="white"/>
<circle cx="72" cy="137" r="2" fill="white"/>
<circle cx="52" cy="137" r="2" fill="white"/>
<circle cx="62" cy="137" r="2" fill="white"/>
<circle cx="42" cy="137" r="2" fill="white"/>
<rect x="40" y="162" width="33" height="22" rx="5" fill="url(#paint1_radial_9_31)"/>
<path fill-rule="evenodd" clip-rule="evenodd" d="M56.5 162.219L52.8333 167.968C52.8333 167.968 54.3 172.999 52.8333 177.311L56.5 183.779L60.1666 177.311C60.1666 177.311 58.7 173.718 60.1666 167.968C60.1666 167.968 56.5 162.219 56.5 162.219Z" stroke="#C7C7B6" stroke-width="1.3" stroke-linejoin="bevel"/>
<path d="M40 168.232H52.8333" stroke="#C7C7B6" stroke-width="1.3" stroke-linejoin="bevel"/>
<path d="M59.7996 168.232H72.9996" stroke="#C7C7B6" stroke-width="1.3" stroke-linejoin="bevel"/>
<path d="M40 177.032H52.8333" stroke="#C7C7B6" stroke-width="1.3" stroke-linejoin="bevel"/>
<path d="M59.7996 177.032H72.9996" stroke="#C7C7B6" stroke-width="1.3" stroke-linejoin="bevel"/>
<path opacity="0.5" d="M40.516 116.04C40.468 118.308 42.424 120.168 44.68 120.132C46.156 120.132 47.404 119.424 48.076 118.308L47.116 117.6C46.552 118.476 45.736 118.968 44.692 118.968C43.072 118.968 41.836 117.72 41.836 116.04C41.836 114.36 43.072 113.112 44.692 113.112C45.736 113.112 46.552 113.604 47.116 114.48L48.076 113.772C47.392 112.656 46.132 111.948 44.68 111.948C42.424 111.912 40.468 113.772 40.516 116.04ZM52.8856 114.108C52.7416 114.072 52.5856 114.048 52.4056 114.048C51.7336 114.048 51.1096 114.348 50.6896 114.876V114.108H49.5136V120H50.7736V116.856C50.7736 115.812 51.5056 115.224 52.5016 115.224H52.8856V114.108ZM59.2004 117.468C59.2604 117.192 59.2964 116.928 59.2964 116.676C59.2964 115.14 58.1324 113.976 56.5724 113.976C54.9044 113.94 53.4884 115.368 53.5244 117.06C53.5244 118.8 54.8924 120.132 56.6924 120.132C57.5924 120.132 58.3724 119.82 59.0444 119.184L58.4444 118.32C57.9164 118.788 57.3404 119.016 56.7284 119.016C55.7204 119.016 54.9644 118.428 54.8084 117.468H59.2004ZM54.8324 116.484C55.0244 115.608 55.6964 115.044 56.5244 115.044C57.3524 115.044 58.0244 115.584 58.0364 116.484H54.8324ZM65.2161 111V114.828C64.7721 114.288 64.0641 113.976 63.2481 113.976C61.6161 113.94 60.3321 115.344 60.3681 117.06C60.3681 118.8 61.5921 120.132 63.2481 120.132C64.1241 120.132 64.8801 119.772 65.3121 119.16V120H66.4881V111H65.2161ZM65.2401 117.06C65.2401 118.344 64.3881 118.98 63.4641 118.98C62.4201 118.98 61.6521 118.176 61.6521 117.048C61.6521 115.92 62.4561 115.128 63.4641 115.128C64.3761 115.128 65.2401 115.788 65.2401 117.06ZM68.3104 120H69.5704V114.108H68.3104V120ZM68.0824 111.912C68.0824 112.38 68.4664 112.74 68.9464 112.74C69.4144 112.74 69.7984 112.38 69.7984 111.912C69.7984 111.444 69.4144 111.072 68.9464 111.072C68.4664 111.072 68.0824 111.444 68.0824 111.912ZM74.8965 118.932C74.5485 118.968 74.2965 118.992 74.1165 118.992C73.3485 118.992 72.9525 118.728 72.9525 117.972V115.2H74.7045V114.108H72.9525V112.56H71.6805V114.108H70.7205V115.2H71.6805V118.08C71.6805 119.46 72.4965 120.132 73.8525 120.132C74.1525 120.132 74.5005 120.084 74.8965 120V118.932ZM79.141 116.04C79.093 118.308 81.049 120.168 83.305 120.132C84.781 120.132 86.029 119.424 86.701 118.308L85.741 117.6C85.177 118.476 84.361 118.968 83.317 118.968C81.697 118.968 80.461 117.72 80.461 116.04C80.461 114.36 81.697 113.112 83.317 113.112C84.361 113.112 85.177 113.604 85.741 114.48L86.701 113.772C86.017 112.656 84.757 111.948 83.305 111.948C81.049 111.912 79.093 113.772 79.141 116.04ZM92.76 116.436C92.76 114.852 91.8 113.976 90.348 113.976C89.328 113.976 88.452 114.384 87.864 115.236L88.596 115.98C89.088 115.392 89.568 115.104 90.228 115.104C91.032 115.104 91.488 115.548 91.488 116.364V116.748H89.82C88.488 116.748 87.648 117.408 87.648 118.428C87.648 119.448 88.464 120.132 89.7 120.132C90.504 120.132 91.152 119.856 91.584 119.34V120H92.76V116.436ZM91.488 117.768C91.488 118.572 90.816 119.16 89.964 119.16C89.352 119.16 88.932 118.872 88.932 118.38C88.932 117.9 89.304 117.66 89.976 117.66H91.488V117.768ZM97.8856 114.108C97.7416 114.072 97.5856 114.048 97.4056 114.048C96.7336 114.048 96.1096 114.348 95.6896 114.876V114.108H94.5136V120H95.7736V116.856C95.7736 115.812 96.5056 115.224 97.5016 115.224H97.8856V114.108ZM103.372 111V114.828C102.928 114.288 102.22 113.976 101.404 113.976C99.7724 113.94 98.4884 115.344 98.5244 117.06C98.5244 118.8 99.7484 120.132 101.404 120.132C102.28 120.132 103.036 119.772 103.468 119.16V120H104.644V111H103.372ZM103.396 117.06C103.396 118.344 102.544 118.98 101.62 118.98C100.576 118.98 99.8084 118.176 99.8084 117.048C99.8084 115.92 100.612 115.128 101.62 115.128C102.532 115.128 103.396 115.788 103.396 117.06Z" fill="white"/>
<path d="M56.4164 47.9741H68.5837V69.8366H56.4164V47.9741Z" fill="#B27BFF"/>
<path d="M57.1888 58.9055C57.1888 54.4635 59.2746 50.5236 62.4805 47.9742C60.1244 46.1201 57.1503 45 53.9057 45C46.2188 45 40 51.2188 40 58.9055C40 66.5921 46.2188 72.811 53.9055 72.811C57.1501 72.811 60.1243 71.6909 62.4805 69.8367C59.2746 67.326 57.1888 63.3475 57.1888 58.9055Z" fill="#9E59FF"/>
<path d="M84.9995 58.9055C84.9995 66.5921 78.7808 72.811 71.094 72.811C67.8494 72.811 64.8752 71.6909 62.519 69.8367C65.7636 67.2874 67.8109 63.3475 67.8109 58.9055C67.8109 54.4635 65.7249 50.5236 62.519 47.9742C64.8751 46.1201 67.8494 45 71.094 45C78.7808 45 84.9997 51.2575 84.9997 58.9055H84.9995Z" fill="#9E59FF"/>
<g filter="url(#filter1_d_9_31)">
<rect x="314" y="20" width="24" height="24" rx="12" fill="url(#paint2_linear_9_31)"/>
</g>
<path d="M331.333 28L324 35.3333L320.667 32" stroke="white" stroke-width="2" stroke-linecap="round" stroke-linejoin="round"/>
</g>
<defs>
<filter id="filter0_d_9_31" x="-7" y="0" width="387" height="249" filterUnits="userSpaceOnUse" color-interpolation-filters="sRGB">
<feFlood flood-opacity="0" result="BackgroundImageFix"/>
<feColorMatrix in="SourceAlpha" type="matrix" values="0 0 0 0 0 0 0 0 0 0 0 0 0 0 0 0 0 0 127 0" result="hardAlpha"/>
<feOffset dy="10"/>
<feGaussianBlur stdDeviation="15"/>
<feComposite in2="hardAlpha" operator="out"/>
<feColorMatrix type="matrix" values="0 0 0 0 0.611765 0 0 0 0 0.172549 0 0 0 0 0.952941 0 0 0 0.2 0"/>
<feBlend mode="normal" in2="BackgroundImageFix" result="effect1_dropShadow_9_31"/>
<feBlend mode="normal" in="SourceGraphic" in2="effect1_dropShadow_9_31" result="shape"/>
</filter>
<filter id="filter1_d_9_31" x="284" y="0" width="84" height="84" filterUnits="userSpaceOnUse" color-interpolation-filters="sRGB">
<feFlood flood-opacity="0" result="BackgroundImageFix"/>
<feColorMatrix in="SourceAlpha" type="matrix" values="0 0 0 0 0 0 0 0 0 0 0 0 0 0 0 0 0 0 127 0" result="hardAlpha"/>
<feOffset dy="10"/>
<feGaussianBlur stdDeviation="15"/>
<feComposite in2="hardAlpha" operator="out"/>
<feColorMatrix type="matrix" values="0 0 0 0 1 0 0 0 0 0.6 0 0 0 0 0 0 0 0 0.2 0"/>
<feBlend mode="normal" in2="BackgroundImageFix" result="effect1_dropShadow_9_31"/>
<feBlend mode="normal" in="SourceGraphic" in2="effect1_dropShadow_9_31" result="shape"/>
</filter>
<linearGradient id="paint0_linear_9_31" x1="187.628" y1="-5.50526" x2="194.095" y2="232.049" gradientUnits="userSpaceOnUse">
<stop stop-color="#9C2CF3"/>
<stop offset="1" stop-color="#3A49F9"/>
</linearGradient>
<radialGradient id="paint1_radial_9_31" cx="0" cy="0" r="1" gradientUnits="userSpaceOnUse" gradientTransform="translate(58.9503 170.014) rotate(141.302) scale(22.37 22.2003)">
<stop stop-color="white"/>
<stop offset="1" stop-color="#DDDCDA"/>
</radialGradient>
<linearGradient id="paint2_linear_9_31" x1="326" y1="20" x2="326" y2="44" gradientUnits="userSpaceOnUse">
<stop stop-color="#FFCF53"/>
<stop offset="1" stop-color="#FF9900"/>
</linearGradient>
</defs>
</svg>
