<svg width="110" height="110" viewBox="0 0 110 110" fill="none" xmlns="http://www.w3.org/2000/svg">
<g filter="url(#filter0_d_1_741)">
<rect x="30" y="20" width="50" height="50" rx="24" fill="url(#paint0_linear_1_741)"/>
</g>
<path d="M55.5 49.6667C57.2259 49.6667 58.625 48.2676 58.625 46.5417C58.625 44.8159 57.2259 43.4167 55.5 43.4167C53.7741 43.4167 52.375 44.8159 52.375 46.5417C52.375 48.2676 53.7741 49.6667 55.5 49.6667Z" stroke="#FBF9FF" stroke-width="1.5" stroke-linecap="round" stroke-linejoin="round"/>
<path d="M55.5 37.1667H53.4167C53.1404 37.1667 52.8754 37.2765 52.6801 37.4718C52.4847 37.6672 52.375 37.9321 52.375 38.2084C52.375 38.7609 52.1555 39.2909 51.7648 39.6816C51.3741 40.0723 50.8442 40.2917 50.2917 40.2917H48.2083C47.6558 40.2917 47.1259 40.5112 46.7352 40.9019C46.3445 41.2926 46.125 41.8225 46.125 42.3751V51.7501C46.125 52.3026 46.3445 52.8325 46.7352 53.2232C47.1259 53.6139 47.6558 53.8334 48.2083 53.8334H62.7917C63.3442 53.8334 63.8741 53.6139 64.2648 53.2232C64.6555 52.8325 64.875 52.3026 64.875 51.7501V44.4584" stroke="#FBF9FF" stroke-width="1.5" stroke-linecap="round" stroke-linejoin="round"/>
<path d="M58.625 39.25H64.875" stroke="#FBF9FF" stroke-width="1.5" stroke-linecap="round" stroke-linejoin="round"/>
<path d="M61.75 36.125V42.375" stroke="#FBF9FF" stroke-width="1.5" stroke-linecap="round" stroke-linejoin="round"/>
<defs>
<filter id="filter0_d_1_741" x="0" y="0" width="110" height="110" filterUnits="userSpaceOnUse" color-interpolation-filters="sRGB">
<feFlood flood-opacity="0" result="BackgroundImageFix"/>
<feColorMatrix in="SourceAlpha" type="matrix" values="0 0 0 0 0 0 0 0 0 0 0 0 0 0 0 0 0 0 127 0" result="hardAlpha"/>
<feOffset dy="10"/>
<feGaussianBlur stdDeviation="15"/>
<feComposite in2="hardAlpha" operator="out"/>
<feColorMatrix type="matrix" values="0 0 0 0 1 0 0 0 0 0.6 0 0 0 0 0 0 0 0 0.2 0"/>
<feBlend mode="normal" in2="BackgroundImageFix" result="effect1_dropShadow_1_741"/>
<feBlend mode="normal" in="SourceGraphic" in2="effect1_dropShadow_1_741" result="shape"/>
</filter>
<linearGradient id="paint0_linear_1_741" x1="55" y1="20" x2="55" y2="70" gradientUnits="userSpaceOnUse">
<stop stop-color="#FFCF53"/>
<stop offset="1" stop-color="#FF9900"/>
</linearGradient>
</defs>
</svg>
