<svg width="180" height="265" viewBox="0 0 180 265" fill="none" xmlns="http://www.w3.org/2000/svg">
<g clip-path="url(#clip0_1_790)">
<path d="M63.3 46.4648H18.3V136.397H63.3V46.4648Z" fill="url(#paint0_linear_1_790)"/>
<path d="M155.7 4.49658H133.2V64.4513H155.7V4.49658Z" fill="url(#paint1_linear_1_790)"/>
<path d="M79.5 0H64.5V40.1697H79.5V0Z" fill="url(#paint2_linear_1_790)"/>
<path opacity="0.6" d="M157.5 260.054C157.5 262.752 127.35 265 90 265C52.65 265 22.5 262.752 22.5 260.054C22.5 257.356 52.65 255.107 90 255.107C127.35 255.107 157.5 257.356 157.5 260.054Z" fill="url(#paint3_linear_1_790)"/>
<path d="M168.75 117.661H11.25C5.1 117.661 0 122.757 0 128.903V140.144H180V128.903C180 122.757 174.9 117.661 168.75 117.661Z" fill="url(#paint4_linear_1_790)"/>
<path d="M168.75 117.661H11.25C5.1 117.661 0 122.757 0 128.903V140.144H180V128.903C180 122.757 174.9 117.661 168.75 117.661Z" fill="url(#paint5_linear_1_790)"/>
<path d="M106.05 129.952L103.8 117.811H79.5L66 121.408C66 121.258 66.15 120.959 66 120.809C65.55 119.909 64.95 118.86 64.35 117.811H56.4C56.55 117.961 56.55 118.111 56.7 118.261C54.6 118.261 52.65 118.111 51 117.811H32.4C34.8 122.757 44.1 124.556 52.8 125.006L38.4 128.903L27.3 131.9C25.65 132.35 24.75 134.149 25.35 135.648L27 140.294H103.05L101.55 131.151L106.05 129.952Z" fill="url(#paint6_linear_1_790)"/>
<path d="M180 140.144H0V162.627H180V140.144Z" fill="url(#paint7_linear_1_790)"/>
<path d="M61.0501 85.8852C52.6501 88.1335 52.6501 108.818 52.9501 117.661C52.9501 118.71 53.5501 119.61 54.4501 120.059C55.2001 120.509 55.9501 120.509 56.7001 120.359C56.8501 120.359 57.1501 120.209 57.3001 120.059C65.1001 116.012 83.1001 105.52 80.8501 97.1267C78.4501 88.7331 69.6001 83.6369 61.0501 85.8852ZM61.6501 99.0753C64.8001 98.1759 68.1001 100.124 69.0001 103.122C68.7001 104.471 64.8001 107.769 59.8501 110.916C60.0001 104.921 60.7501 99.9746 61.6501 99.0753Z" fill="url(#paint8_linear_1_790)"/>
<path d="M58.5001 116.162C54.4501 108.368 43.9501 90.3816 35.5501 92.6299C27.0001 94.8782 21.9001 103.722 24.1501 112.265C26.4001 120.659 47.1001 120.659 55.9501 120.359C56.1001 120.359 56.4001 120.359 56.5501 120.209C57.3001 120.059 57.9001 119.46 58.3501 118.86C58.9501 118.111 58.9501 117.062 58.5001 116.162ZM37.5001 111.815C36.6001 108.668 38.5501 105.37 41.5501 104.471C42.9001 104.771 46.2001 108.668 49.3501 113.614C43.3501 113.464 38.2501 112.715 37.5001 111.815Z" fill="url(#paint9_linear_1_790)"/>
<path d="M90.9 108.218L21 126.954L41.4 181.513C42 182.862 43.5 183.761 44.85 183.312L98.4 168.922C99.9 168.473 100.8 167.124 100.5 165.625L90.9 108.218Z" fill="url(#paint10_linear_1_790)"/>
<path d="M17.7001 131.001L22.9501 145.69L98.55 125.455L95.7001 110.167C95.4001 108.518 93.7501 107.469 92.1001 107.918L19.8001 127.254C18.1501 127.703 17.2501 129.352 17.7001 131.001Z" fill="url(#paint11_linear_1_790)"/>
<path d="M94.5 129.352L94.05 126.654L27.45 144.491L28.5 147.039L94.5 129.352Z" fill="url(#paint12_linear_1_790)"/>
<path d="M47.4 119.76C46.2 115.113 48.9 110.317 53.55 108.968C58.2 107.769 63 110.467 64.35 115.113L47.4 119.76Z" fill="url(#paint13_linear_1_790)"/>
<path d="M64.3501 115.263L47.4001 119.76L63.1501 178.366L80.1001 173.869L64.3501 115.263Z" fill="url(#paint14_linear_1_790)"/>
<path d="M0 218.835C0 224.98 5.1 230.077 11.25 230.077H168.75C174.9 230.077 180 224.98 180 218.835V162.627H0V218.835Z" fill="url(#paint15_linear_1_790)"/>
<path d="M0 218.835C0 224.98 5.1 230.077 11.25 230.077H168.75C174.9 230.077 180 224.98 180 218.835V162.627H0V218.835Z" fill="url(#paint16_linear_1_790)"/>
<path d="M154.65 212.54C159.289 212.54 163.05 208.782 163.05 204.146C163.05 199.51 159.289 195.752 154.65 195.752C150.011 195.752 146.25 199.51 146.25 204.146C146.25 208.782 150.011 212.54 154.65 212.54Z" fill="url(#paint17_linear_1_790)"/>
<path d="M137.85 212.54C142.489 212.54 146.25 208.782 146.25 204.146C146.25 199.51 142.489 195.752 137.85 195.752C133.211 195.752 129.45 199.51 129.45 204.146C129.45 208.782 133.211 212.54 137.85 212.54Z" fill="white"/>
<path d="M29.1 211.941C28.05 212.241 26.1 212.84 24 212.84C21.3 212.84 19.2 212.091 17.85 210.892C16.5 209.543 15.75 207.594 15.75 205.346C15.75 200.4 19.5 197.402 24.45 197.402C26.4 197.402 27.9 197.852 28.65 198.151L27.9 200.849C27 200.4 26.1 200.25 24.45 200.25C21.6 200.25 19.5 201.898 19.5 205.196C19.5 208.344 21.45 210.142 24.3 210.142C25.05 210.142 25.65 209.992 25.95 209.992V206.845H23.55V203.847H29.25V211.941H29.1Z" fill="white"/>
<path d="M33.4501 200.25C32.4001 200.25 31.6501 199.5 31.6501 198.601C31.6501 197.702 32.4001 196.952 33.4501 196.952C34.5001 196.952 35.2501 197.702 35.2501 198.601C35.2501 199.5 34.5001 200.25 33.4501 200.25ZM31.6501 212.54V201.599H35.1001V212.54H31.6501Z" fill="white"/>
<path d="M38.25 212.54V204.146H36.75V201.598H38.25V201.148C38.25 199.799 38.7 198.301 39.6 197.401C40.5 196.652 41.7 196.352 42.6 196.352C43.35 196.352 43.95 196.502 44.4 196.502L44.25 199.05C43.95 198.9 43.65 198.9 43.2 198.9C42.15 198.9 41.55 199.799 41.55 200.849V201.448H43.8V203.996H41.55V212.39H38.25V212.54Z" fill="white"/>
<path d="M49.6499 198.601V201.598H52.0499V204.146H49.6499V208.043C49.6499 209.392 49.9499 209.992 50.9999 209.992C51.4499 209.992 51.7499 209.992 52.0499 209.842V212.39C51.5999 212.54 50.8499 212.69 49.7999 212.69C48.7499 212.69 47.8499 212.24 47.2499 211.791C46.6499 211.191 46.3499 210.142 46.3499 208.493V203.997H44.8499V201.448H46.3499V199.35L49.6499 198.601Z" fill="white"/>
<path d="M69.6 212.091C68.85 212.39 67.5 212.84 65.55 212.84C61.35 212.84 58.05 210.142 58.05 205.196C58.05 200.4 61.2 197.252 66 197.252C67.95 197.252 69.15 197.702 69.6 197.851L69.15 199.5C68.4 199.2 67.35 198.901 66.15 198.901C62.55 198.901 60.3 201.149 60.3 205.196C60.3 208.943 62.4 211.341 66.15 211.341C67.35 211.341 68.55 211.042 69.3 210.742L69.6 212.091Z" fill="white"/>
<path d="M77.8499 212.54L77.6999 211.191C77.0999 212.09 75.8999 212.84 74.3999 212.84C72.1499 212.84 71.0999 211.341 71.0999 209.692C71.0999 207.144 73.4999 205.645 77.6999 205.645V205.495C77.6999 204.596 77.3999 202.947 75.2999 202.947C74.2499 202.947 73.1999 203.247 72.4499 203.697L71.9999 202.348C72.8999 201.748 74.2499 201.448 75.5999 201.448C78.8999 201.448 79.7999 203.697 79.7999 205.945V209.992C79.7999 210.891 79.7999 211.79 79.9499 212.54H77.8499ZM77.5499 206.994C75.4499 206.994 72.8999 207.294 72.8999 209.392C72.8999 210.591 73.7999 211.341 74.6999 211.341C76.0499 211.341 76.9499 210.441 77.2499 209.542C77.2499 209.392 77.3999 209.092 77.3999 208.943V206.994H77.5499Z" fill="white"/>
<path d="M82.65 205.046C82.65 203.846 82.65 202.647 82.5 201.598H84.3V203.697H84.45C84.9 202.198 86.1 201.298 87.45 201.298C87.75 201.298 87.9 201.298 88.05 201.298V203.097C87.9 203.097 87.6 203.097 87.45 203.097C86.1 203.097 85.05 204.146 84.75 205.645C84.75 205.945 84.6 206.245 84.6 206.544V212.39H82.65V205.046Z" fill="white"/>
<path d="M99.15 196.652V209.842C99.15 210.741 99.15 211.94 99.3 212.69H97.5L97.35 210.741C96.75 211.94 95.4 212.84 93.6 212.84C91.05 212.84 88.95 210.591 88.95 207.294C88.95 203.697 91.2 201.448 93.75 201.448C95.4 201.448 96.6 202.198 97.05 203.097V196.652H99.15ZM97.2 206.095C97.2 205.795 97.2 205.495 97.05 205.195C96.75 203.996 95.7 202.947 94.2 202.947C92.1 202.947 90.9 204.746 90.9 207.144C90.9 209.392 91.95 211.191 94.05 211.191C95.4 211.191 96.6 210.292 96.9 208.793C96.9 208.493 97.05 208.193 97.05 207.893V206.095H97.2Z" fill="white"/>
<path d="M61.0501 85.8852C52.6501 88.1335 52.6501 108.818 52.9501 117.661C52.9501 118.71 53.5501 119.61 54.4501 120.059C55.2001 120.509 55.9501 120.509 56.7001 120.359C56.8501 120.359 57.1501 120.209 57.3001 120.059C65.1001 116.012 83.1001 105.52 80.8501 97.1267C78.4501 88.7331 69.6001 83.6369 61.0501 85.8852ZM61.6501 99.0753C64.8001 98.1759 68.1001 100.124 69.0001 103.122C68.7001 104.471 64.8001 107.769 59.8501 110.916C60.0001 104.921 60.7501 99.9746 61.6501 99.0753Z" fill="url(#paint18_linear_1_790)"/>
<path d="M61.0501 85.8852C52.6501 88.1335 52.6501 108.818 52.9501 117.661C52.9501 118.71 53.5501 119.61 54.4501 120.059C55.2001 120.509 55.9501 120.509 56.7001 120.359C56.8501 120.359 57.1501 120.209 57.3001 120.059C65.1001 116.012 83.1001 105.52 80.8501 97.1267C78.4501 88.7331 69.6001 83.6369 61.0501 85.8852ZM61.6501 99.0753C64.8001 98.1759 68.1001 100.124 69.0001 103.122C68.7001 104.471 64.8001 107.769 59.8501 110.916C60.0001 104.921 60.7501 99.9746 61.6501 99.0753Z" fill="url(#paint19_linear_1_790)"/>
<path d="M58.5001 116.162C54.4501 108.368 43.9501 90.3816 35.5501 92.6299C27.0001 94.8782 21.9001 103.722 24.1501 112.265C26.4001 120.659 47.1001 120.659 55.9501 120.359C56.1001 120.359 56.4001 120.359 56.5501 120.209C57.3001 120.059 57.9001 119.46 58.3501 118.86C58.9501 118.111 58.9501 117.062 58.5001 116.162ZM37.5001 111.815C36.6001 108.668 38.5501 105.37 41.5501 104.471C42.9001 104.771 46.2001 108.668 49.3501 113.614C43.3501 113.464 38.2501 112.715 37.5001 111.815Z" fill="url(#paint20_linear_1_790)"/>
<path d="M58.5001 116.162C54.4501 108.368 43.9501 90.3816 35.5501 92.6299C27.0001 94.8782 21.9001 103.722 24.1501 112.265C26.4001 120.659 47.1001 120.659 55.9501 120.359C56.1001 120.359 56.4001 120.359 56.5501 120.209C57.3001 120.059 57.9001 119.46 58.3501 118.86C58.9501 118.111 58.9501 117.062 58.5001 116.162ZM37.5001 111.815C36.6001 108.668 38.5501 105.37 41.5501 104.471C42.9001 104.771 46.2001 108.668 49.3501 113.614C43.3501 113.464 38.2501 112.715 37.5001 111.815Z" fill="url(#paint21_linear_1_790)"/>
<path d="M90.9 108.218L21 126.954L41.4 181.513C42 182.862 43.5 183.761 44.85 183.312L98.4 168.922C99.9 168.473 100.8 167.124 100.5 165.625L90.9 108.218Z" fill="url(#paint22_linear_1_790)"/>
<path d="M17.7001 131.001L22.9501 145.69L98.55 125.455L95.7001 110.167C95.4001 108.518 93.7501 107.469 92.1001 107.918L19.8001 127.254C18.1501 127.703 17.2501 129.352 17.7001 131.001Z" fill="url(#paint23_linear_1_790)"/>
<path d="M95.55 135.797L94.05 126.654L27.45 144.491L30.75 153.184L95.55 135.797Z" fill="url(#paint24_linear_1_790)"/>
<path d="M47.4 119.76C46.2 115.113 48.9 110.317 53.55 108.968C58.2 107.769 63 110.467 64.35 115.113L47.4 119.76Z" fill="url(#paint25_linear_1_790)"/>
<path d="M47.4 119.76C46.2 115.113 48.9 110.317 53.55 108.968C58.2 107.769 63 110.467 64.35 115.113L47.4 119.76Z" fill="url(#paint26_linear_1_790)"/>
<path d="M64.3501 115.263L47.4001 119.76L63.1501 178.366L80.1001 173.869L64.3501 115.263Z" fill="url(#paint27_linear_1_790)"/>
<path d="M64.3501 115.263L47.4001 119.76L63.1501 178.366L80.1001 173.869L64.3501 115.263Z" fill="url(#paint28_linear_1_790)"/>
<path d="M140.55 32.8253C133.65 31.0267 124.95 45.8655 121.5 52.4605C121.05 53.2099 121.2 54.1093 121.5 54.8587C121.8 55.4582 122.4 55.758 123 56.0578C123.15 56.0578 123.3 56.0578 123.6 56.2077C130.95 56.5074 148.2 56.5074 150.15 49.4628C151.95 42.1183 147.75 34.7738 140.55 32.8253ZM135.6 42.7179C138.3 43.4673 139.8 46.1653 139.2 48.5634C138.45 49.4628 134.25 50.2122 129.3 50.3621C131.85 46.1652 134.55 42.8677 135.6 42.7179Z" fill="url(#paint29_linear_1_790)"/>
<path d="M126.15 53.6597C126.45 46.3152 126.45 29.0783 119.4 27.1297C112.2 25.1812 104.85 29.5279 102.9 36.5726C101.1 43.6173 115.95 52.1608 122.55 55.6082C122.7 55.7581 122.85 55.7581 123 55.7581C123.6 55.908 124.35 55.908 124.8 55.4583C125.7 55.3085 126.15 54.559 126.15 53.6597ZM112.8 41.6688C113.55 38.9708 116.25 37.4719 118.8 38.0715C119.7 38.8209 120.45 43.0177 120.6 47.964C116.4 45.4159 112.95 42.718 112.8 41.6688Z" fill="url(#paint30_linear_1_790)"/>
<path d="M152.85 61.3041L94.5 45.7158L86.55 93.6796C86.4 94.8787 87.15 96.0778 88.35 96.3776L132.9 108.369C134.1 108.668 135.45 108.069 135.75 106.87L152.85 61.3041Z" fill="url(#paint31_linear_1_790)"/>
<path d="M90.6 47.3643L88.2 60.1047L151.2 76.8921L155.55 64.7512C156 63.4022 155.25 61.9034 153.9 61.6036L93.6 45.5657C92.25 45.116 90.75 46.0154 90.6 47.3643Z" fill="url(#paint32_linear_1_790)"/>
<path d="M146.55 78.0915L147.45 75.9931L91.9499 61.1543L91.6499 63.4026L146.55 78.0915Z" fill="url(#paint33_linear_1_790)"/>
<path d="M116.7 51.711C117.75 47.814 121.8 45.5657 125.7 46.6149C129.6 47.6641 131.85 51.711 130.8 55.6081L116.7 51.711Z" fill="url(#paint34_linear_1_790)"/>
<path d="M130.8 55.4581L116.7 51.7109L103.5 100.574L117.6 104.321L130.8 55.4581Z" fill="url(#paint35_linear_1_790)"/>
<path d="M60.9001 20.3847C56.7001 21.4339 56.7001 31.926 56.8501 36.2727C56.8501 36.7224 57.1501 37.172 57.6001 37.4718C57.9001 37.6217 58.3501 37.7716 58.6501 37.6217C58.8001 37.6217 58.8001 37.6217 58.9501 37.4718C62.8501 35.3734 71.8501 30.2772 70.6501 26.0804C69.6001 21.7337 65.1001 19.1856 60.9001 20.3847ZM61.2001 26.9797C62.8501 26.53 64.5001 27.4294 64.8001 28.9282C64.6501 29.6777 62.7001 31.3264 60.1501 32.8253C60.3001 29.8276 60.7501 27.2795 61.2001 26.9797Z" fill="url(#paint36_linear_1_790)"/>
<path d="M60.9001 20.3847C56.7001 21.4339 56.7001 31.926 56.8501 36.2727C56.8501 36.7224 57.1501 37.172 57.6001 37.4718C57.9001 37.6217 58.3501 37.7716 58.6501 37.6217C58.8001 37.6217 58.8001 37.6217 58.9501 37.4718C62.8501 35.3734 71.8501 30.2772 70.6501 26.0804C69.6001 21.7337 65.1001 19.1856 60.9001 20.3847ZM61.2001 26.9797C62.8501 26.53 64.5001 27.4294 64.8001 28.9282C64.6501 29.6777 62.7001 31.3264 60.1501 32.8253C60.3001 29.8276 60.7501 27.2795 61.2001 26.9797Z" fill="url(#paint37_linear_1_790)"/>
<path d="M59.55 35.5235C57.45 31.6264 52.35 22.6332 48.15 23.8323C43.8 25.0314 41.25 29.3781 42.45 33.7248C43.5 37.9216 54 37.9216 58.35 37.7718C58.5 37.7718 58.5 37.7718 58.65 37.7718C58.95 37.6219 59.4 37.472 59.55 37.0223C59.85 36.4228 59.85 35.9731 59.55 35.5235ZM49.05 33.2752C48.6 31.6264 49.5 29.9776 51 29.6779C51.75 29.8278 53.4 31.7763 54.9 34.3244C52.05 34.1745 49.5 33.7248 49.05 33.2752Z" fill="url(#paint38_linear_1_790)"/>
<path d="M59.55 35.5235C57.45 31.6264 52.35 22.6332 48.15 23.8323C43.8 25.0314 41.25 29.3781 42.45 33.7248C43.5 37.9216 54 37.9216 58.35 37.7718C58.5 37.7718 58.5 37.7718 58.65 37.7718C58.95 37.6219 59.4 37.472 59.55 37.0223C59.85 36.4228 59.85 35.9731 59.55 35.5235ZM49.05 33.2752C48.6 31.6264 49.5 29.9776 51 29.6779C51.75 29.8278 53.4 31.7763 54.9 34.3244C52.05 34.1745 49.5 33.7248 49.05 33.2752Z" fill="url(#paint39_linear_1_790)"/>
<path d="M62.5501 35.0737L54.0001 37.322L61.9501 66.55L70.3501 64.3017L62.5501 35.0737Z" fill="url(#paint40_linear_1_790)"/>
<path d="M62.5501 35.0737L54.0001 37.322L61.9501 66.55L70.3501 64.3017L62.5501 35.0737Z" fill="url(#paint41_linear_1_790)"/>
<path d="M75.75 31.4761L40.8 40.7691L51 68.1984C51.3 68.9478 52.05 69.2476 52.8 69.0977L79.5 61.9031C80.25 61.7532 80.7 61.0038 80.55 60.2544L75.75 31.4761Z" fill="url(#paint42_linear_1_790)"/>
<path d="M39.15 42.8675L41.7 50.212L79.5 40.1696L78.15 32.5254C78 31.626 77.1 31.1764 76.35 31.3263L40.2 41.0689C39.3 41.2188 38.85 42.1181 39.15 42.8675Z" fill="url(#paint43_linear_1_790)"/>
<path d="M77.5501 41.9686L77.2501 40.7695L44.1001 49.6129L44.5501 50.812L77.5501 41.9686Z" fill="url(#paint44_linear_1_790)"/>
<path d="M54.0001 37.3219C53.4001 34.9237 54.7501 32.5255 57.1501 31.926C59.5501 31.3265 61.9501 32.6754 62.5501 35.0736L54.0001 37.3219Z" fill="url(#paint45_linear_1_790)"/>
<path d="M54.0001 37.3219C53.4001 34.9237 54.7501 32.5255 57.1501 31.926C59.5501 31.3265 61.9501 32.6754 62.5501 35.0736L54.0001 37.3219Z" fill="url(#paint46_linear_1_790)"/>
<path d="M62.5501 35.0737L54.0001 37.322L61.9501 66.55L70.3501 64.3017L62.5501 35.0737Z" fill="url(#paint47_linear_1_790)"/>
<path d="M62.5501 35.0737L54.0001 37.322L61.9501 66.55L70.3501 64.3017L62.5501 35.0737Z" fill="url(#paint48_linear_1_790)"/>
</g>
<defs>
<linearGradient id="paint0_linear_1_790" x1="7.03242" y1="125.211" x2="74.4768" y2="57.7156" gradientUnits="userSpaceOnUse">
<stop stop-color="#FADBAC"/>
<stop offset="0.75" stop-color="white"/>
</linearGradient>
<linearGradient id="paint1_linear_1_790" x1="123.783" y1="13.9215" x2="164.993" y2="55.1625" gradientUnits="userSpaceOnUse">
<stop offset="0.25" stop-color="white"/>
<stop offset="1" stop-color="#FADBAC"/>
</linearGradient>
<linearGradient id="paint2_linear_1_790" x1="58.2618" y1="6.26857" x2="85.8245" y2="33.8521" gradientUnits="userSpaceOnUse">
<stop offset="0.25" stop-color="white"/>
<stop offset="1" stop-color="#FADBAC"/>
</linearGradient>
<linearGradient id="paint3_linear_1_790" x1="22.5" y1="260.051" x2="157.5" y2="260.051" gradientUnits="userSpaceOnUse">
<stop stop-color="#DFEFFF"/>
<stop offset="1" stop-color="#8AC5FF" stop-opacity="0.69"/>
</linearGradient>
<linearGradient id="paint4_linear_1_790" x1="0" y1="128.96" x2="180" y2="128.96" gradientUnits="userSpaceOnUse">
<stop stop-color="#99BAED"/>
<stop offset="1" stop-color="#3F81D9"/>
</linearGradient>
<linearGradient id="paint5_linear_1_790" x1="90" y1="117.661" x2="90" y2="140.144" gradientUnits="userSpaceOnUse">
<stop stop-color="#44BBFE"/>
<stop offset="1" stop-color="#1E78FE"/>
</linearGradient>
<linearGradient id="paint6_linear_1_790" x1="46.1866" y1="106.119" x2="86.4307" y2="154.116" gradientUnits="userSpaceOnUse">
<stop stop-color="#6F9EE6"/>
<stop offset="1" stop-color="#337AD7"/>
</linearGradient>
<linearGradient id="paint7_linear_1_790" x1="0" y1="151.38" x2="180" y2="151.38" gradientUnits="userSpaceOnUse">
<stop stop-color="#DFEFFF"/>
<stop offset="1" stop-color="#8AC5FF"/>
</linearGradient>
<linearGradient id="paint8_linear_1_790" x1="52.3748" y1="97.1385" x2="75.3646" y2="110.422" gradientUnits="userSpaceOnUse">
<stop stop-color="#C1D5F4"/>
<stop offset="1" stop-color="#3F81D9"/>
</linearGradient>
<linearGradient id="paint9_linear_1_790" x1="25.8622" y1="100.182" x2="58.4484" y2="119.011" gradientUnits="userSpaceOnUse">
<stop stop-color="#C1D5F4"/>
<stop offset="1" stop-color="#3F81D9"/>
</linearGradient>
<linearGradient id="paint10_linear_1_790" x1="24.2975" y1="121.073" x2="101.346" y2="165.591" gradientUnits="userSpaceOnUse">
<stop stop-color="#FADBAC"/>
<stop offset="0.1738" stop-color="#FAD9A8"/>
<stop offset="0.354" stop-color="#F9D49B"/>
<stop offset="0.537" stop-color="#F8CC87"/>
<stop offset="0.7221" stop-color="#F6C16A"/>
<stop offset="0.907" stop-color="#F4B245"/>
<stop offset="1" stop-color="#F3AA2F"/>
</linearGradient>
<linearGradient id="paint11_linear_1_790" x1="28.8771" y1="109.714" x2="87.8908" y2="143.812" gradientUnits="userSpaceOnUse">
<stop stop-color="#FADBAC"/>
<stop offset="0.1814" stop-color="#FAD9A8"/>
<stop offset="0.3695" stop-color="#F9D49B"/>
<stop offset="0.5605" stop-color="#F8CC87"/>
<stop offset="0.7537" stop-color="#F7C16A"/>
<stop offset="0.9467" stop-color="#F5B345"/>
<stop offset="1" stop-color="#F4AE39"/>
</linearGradient>
<linearGradient id="paint12_linear_1_790" x1="27.8529" y1="145.734" x2="94.3409" y2="127.906" gradientUnits="userSpaceOnUse">
<stop stop-color="#F7C374"/>
<stop offset="1" stop-color="#F3A31F"/>
</linearGradient>
<linearGradient id="paint13_linear_1_790" x1="46.3036" y1="115.556" x2="63.2639" y2="111.009" gradientUnits="userSpaceOnUse">
<stop stop-color="#C1D5F4"/>
<stop offset="1" stop-color="#3F81D9"/>
</linearGradient>
<linearGradient id="paint14_linear_1_790" x1="39.8097" y1="133" x2="87.7339" y2="160.691" gradientUnits="userSpaceOnUse">
<stop stop-color="#C1D5F4"/>
<stop offset="1" stop-color="#2E76D6"/>
</linearGradient>
<linearGradient id="paint15_linear_1_790" x1="0" y1="196.41" x2="180" y2="196.41" gradientUnits="userSpaceOnUse">
<stop stop-color="#99BAED"/>
<stop offset="1" stop-color="#3F81D9"/>
</linearGradient>
<linearGradient id="paint16_linear_1_790" x1="90" y1="162.627" x2="90" y2="230.077" gradientUnits="userSpaceOnUse">
<stop stop-color="#44BBFE"/>
<stop offset="1" stop-color="#1E78FE"/>
</linearGradient>
<linearGradient id="paint17_linear_1_790" x1="146.25" y1="204.116" x2="163.125" y2="204.116" gradientUnits="userSpaceOnUse">
<stop stop-color="#D1E0F7"/>
<stop offset="1" stop-color="#BAD2F1"/>
</linearGradient>
<linearGradient id="paint18_linear_1_790" x1="52.3748" y1="97.1343" x2="75.3646" y2="110.418" gradientUnits="userSpaceOnUse">
<stop stop-color="#C1D5F4"/>
<stop offset="1" stop-color="#3F81D9"/>
</linearGradient>
<linearGradient id="paint19_linear_1_790" x1="66.9528" y1="85.3535" x2="66.9528" y2="120.449" gradientUnits="userSpaceOnUse">
<stop stop-color="#44BBFE"/>
<stop offset="1" stop-color="#1E78FE"/>
</linearGradient>
<linearGradient id="paint20_linear_1_790" x1="25.8623" y1="100.178" x2="58.4484" y2="119.006" gradientUnits="userSpaceOnUse">
<stop stop-color="#C1D5F4"/>
<stop offset="1" stop-color="#3F81D9"/>
</linearGradient>
<linearGradient id="paint21_linear_1_790" x1="41.2197" y1="92.437" x2="41.2197" y2="120.447" gradientUnits="userSpaceOnUse">
<stop stop-color="#44BBFE"/>
<stop offset="1" stop-color="#1E78FE"/>
</linearGradient>
<linearGradient id="paint22_linear_1_790" x1="24.2975" y1="121.069" x2="101.346" y2="165.587" gradientUnits="userSpaceOnUse">
<stop stop-color="#FAD59E"/>
<stop offset="1" stop-color="#F3A31F"/>
</linearGradient>
<linearGradient id="paint23_linear_1_790" x1="28.8771" y1="109.71" x2="87.8908" y2="143.808" gradientUnits="userSpaceOnUse">
<stop stop-color="#FADBAC"/>
<stop offset="0.1814" stop-color="#FAD9A8"/>
<stop offset="0.3695" stop-color="#F9D49B"/>
<stop offset="0.5605" stop-color="#F8CC87"/>
<stop offset="0.7537" stop-color="#F7C16A"/>
<stop offset="0.9467" stop-color="#F5B345"/>
<stop offset="1" stop-color="#F4AE39"/>
</linearGradient>
<linearGradient id="paint24_linear_1_790" x1="28.7108" y1="148.929" x2="95.1987" y2="131.101" gradientUnits="userSpaceOnUse">
<stop stop-color="#F7C374"/>
<stop offset="1" stop-color="#F3A31F"/>
</linearGradient>
<linearGradient id="paint25_linear_1_790" x1="46.3038" y1="115.552" x2="63.2639" y2="111.005" gradientUnits="userSpaceOnUse">
<stop stop-color="#C1D5F4"/>
<stop offset="1" stop-color="#3F81D9"/>
</linearGradient>
<linearGradient id="paint26_linear_1_790" x1="55.7328" y1="108.684" x2="55.7328" y2="119.76" gradientUnits="userSpaceOnUse">
<stop stop-color="#44BBFE"/>
<stop offset="1" stop-color="#1E78FE"/>
</linearGradient>
<linearGradient id="paint27_linear_1_790" x1="39.8098" y1="132.996" x2="87.7339" y2="160.687" gradientUnits="userSpaceOnUse">
<stop stop-color="#AEC7F1"/>
<stop offset="1" stop-color="#1868D2"/>
</linearGradient>
<linearGradient id="paint28_linear_1_790" x1="63.7501" y1="115.263" x2="63.7501" y2="178.366" gradientUnits="userSpaceOnUse">
<stop stop-color="#44BBFE"/>
<stop offset="1" stop-color="#1E78FE"/>
</linearGradient>
<linearGradient id="paint29_linear_1_790" x1="129.642" y1="37.3797" x2="140.695" y2="56.5371" gradientUnits="userSpaceOnUse">
<stop stop-color="#C1D5F4"/>
<stop offset="1" stop-color="#3F81D9"/>
</linearGradient>
<linearGradient id="paint30_linear_1_790" x1="109.238" y1="28.5391" x2="124.906" y2="55.6936" gradientUnits="userSpaceOnUse">
<stop stop-color="#C1D5F4"/>
<stop offset="1" stop-color="#3F81D9"/>
</linearGradient>
<linearGradient id="paint31_linear_1_790" x1="99.4009" y1="42.9673" x2="136.444" y2="107.174" gradientUnits="userSpaceOnUse">
<stop stop-color="#FADBAC"/>
<stop offset="0.1738" stop-color="#FAD9A8"/>
<stop offset="0.354" stop-color="#F9D49B"/>
<stop offset="0.537" stop-color="#F8CC87"/>
<stop offset="0.7221" stop-color="#F6C16A"/>
<stop offset="0.907" stop-color="#F4B245"/>
<stop offset="1" stop-color="#F3AA2F"/>
</linearGradient>
<linearGradient id="paint32_linear_1_790" x1="107.442" y1="36.6762" x2="135.814" y2="85.8542" gradientUnits="userSpaceOnUse">
<stop stop-color="#FADBAC"/>
<stop offset="0.1814" stop-color="#FAD9A8"/>
<stop offset="0.3695" stop-color="#F9D49B"/>
<stop offset="0.5605" stop-color="#F8CC87"/>
<stop offset="0.7537" stop-color="#F7C16A"/>
<stop offset="0.9467" stop-color="#F5B345"/>
<stop offset="1" stop-color="#F4AE39"/>
</linearGradient>
<linearGradient id="paint33_linear_1_790" x1="91.6838" y1="62.2457" x2="147.09" y2="77.1024" gradientUnits="userSpaceOnUse">
<stop stop-color="#F7C374"/>
<stop offset="1" stop-color="#F3A31F"/>
</linearGradient>
<linearGradient id="paint34_linear_1_790" x1="117.583" y1="48.1464" x2="131.716" y2="51.9361" gradientUnits="userSpaceOnUse">
<stop stop-color="#C1D5F4"/>
<stop offset="1" stop-color="#3F81D9"/>
</linearGradient>
<linearGradient id="paint35_linear_1_790" x1="105.623" y1="58.0328" x2="128.663" y2="97.9697" gradientUnits="userSpaceOnUse">
<stop stop-color="#C1D5F4"/>
<stop offset="1" stop-color="#2E76D6"/>
</linearGradient>
<linearGradient id="paint36_linear_1_790" x1="56.4964" y1="25.9623" x2="67.9913" y2="32.6043" gradientUnits="userSpaceOnUse">
<stop stop-color="#C1D5F4"/>
<stop offset="1" stop-color="#3F81D9"/>
</linearGradient>
<linearGradient id="paint37_linear_1_790" x1="63.7827" y1="20.0884" x2="63.7827" y2="37.6838" gradientUnits="userSpaceOnUse">
<stop stop-color="#44BBFE"/>
<stop offset="1" stop-color="#1E78FE"/>
</linearGradient>
<linearGradient id="paint38_linear_1_790" x1="43.24" y1="27.4843" x2="59.5331" y2="36.8987" gradientUnits="userSpaceOnUse">
<stop stop-color="#C1D5F4"/>
<stop offset="1" stop-color="#3F81D9"/>
</linearGradient>
<linearGradient id="paint39_linear_1_790" x1="50.9642" y1="23.7231" x2="50.9642" y2="37.8156" gradientUnits="userSpaceOnUse">
<stop stop-color="#44BBFE"/>
<stop offset="1" stop-color="#1E78FE"/>
</linearGradient>
<linearGradient id="paint40_linear_1_790" x1="50.2111" y1="43.8927" x2="74.1731" y2="57.7381" gradientUnits="userSpaceOnUse">
<stop stop-color="#C1D5F4"/>
<stop offset="1" stop-color="#2E76D6"/>
</linearGradient>
<linearGradient id="paint41_linear_1_790" x1="62.1751" y1="35.0737" x2="62.1751" y2="66.55" gradientUnits="userSpaceOnUse">
<stop stop-color="#44BBFE"/>
<stop offset="1" stop-color="#1E78FE"/>
</linearGradient>
<linearGradient id="paint42_linear_1_790" x1="42.4549" y1="37.9288" x2="80.9788" y2="60.1881" gradientUnits="userSpaceOnUse">
<stop stop-color="#FADBAC"/>
<stop offset="0.1738" stop-color="#FAD9A8"/>
<stop offset="0.354" stop-color="#F9D49B"/>
<stop offset="0.537" stop-color="#F8CC87"/>
<stop offset="0.7221" stop-color="#F6C16A"/>
<stop offset="0.907" stop-color="#F4B245"/>
<stop offset="1" stop-color="#F3AA2F"/>
</linearGradient>
<linearGradient id="paint43_linear_1_790" x1="44.7446" y1="32.2496" x2="74.2515" y2="49.2986" gradientUnits="userSpaceOnUse">
<stop stop-color="#FADBAC"/>
<stop offset="0.1814" stop-color="#FAD9A8"/>
<stop offset="0.3695" stop-color="#F9D49B"/>
<stop offset="0.5605" stop-color="#F8CC87"/>
<stop offset="0.7537" stop-color="#F7C16A"/>
<stop offset="0.9467" stop-color="#F5B345"/>
<stop offset="1" stop-color="#F4AE39"/>
</linearGradient>
<linearGradient id="paint44_linear_1_790" x1="44.2326" y1="50.26" x2="77.4766" y2="41.346" gradientUnits="userSpaceOnUse">
<stop stop-color="#F7C374"/>
<stop offset="1" stop-color="#F3A31F"/>
</linearGradient>
<linearGradient id="paint45_linear_1_790" x1="53.4577" y1="35.1716" x2="61.9377" y2="32.8977" gradientUnits="userSpaceOnUse">
<stop stop-color="#C1D5F4"/>
<stop offset="1" stop-color="#3F81D9"/>
</linearGradient>
<linearGradient id="paint46_linear_1_790" x1="58.2041" y1="31.7842" x2="58.2041" y2="37.3219" gradientUnits="userSpaceOnUse">
<stop stop-color="#44BBFE"/>
<stop offset="1" stop-color="#1E78FE"/>
</linearGradient>
<linearGradient id="paint47_linear_1_790" x1="50.2111" y1="43.8927" x2="74.1731" y2="57.7381" gradientUnits="userSpaceOnUse">
<stop stop-color="#C1D5F4"/>
<stop offset="1" stop-color="#2E76D6"/>
</linearGradient>
<linearGradient id="paint48_linear_1_790" x1="62.1751" y1="35.0737" x2="62.1751" y2="66.55" gradientUnits="userSpaceOnUse">
<stop stop-color="#44BBFE"/>
<stop offset="1" stop-color="#1E78FE"/>
</linearGradient>
<clipPath id="clip0_1_790">
<rect width="180" height="265" fill="white"/>
</clipPath>
</defs>
</svg>
