<svg width="180" height="260" viewBox="0 0 180 260" fill="none" xmlns="http://www.w3.org/2000/svg">
<g clip-path="url(#clip0_1_859)">
<path opacity="0.6" d="M157.5 255.049C157.5 257.75 127.35 260 90 260C52.65 260 22.5 257.75 22.5 255.049C22.5 252.349 52.65 250.098 90 250.098C127.35 250.098 157.5 252.349 157.5 255.049Z" fill="url(#paint0_linear_1_859)"/>
<path d="M168.75 112.521H11.25C5.1 112.521 0 117.622 0 123.774V135.026H180V123.774C180 117.622 174.9 112.521 168.75 112.521Z" fill="url(#paint1_linear_1_859)"/>
<path d="M180 135.026H0V157.53H180V135.026Z" fill="url(#paint2_linear_1_859)"/>
<path d="M144.6 135.026C147.3 127.674 149.85 120.023 150.15 112.521H101.7C101.25 119.873 98.7 127.374 95.85 135.026H144.6Z" fill="url(#paint3_linear_1_859)"/>
<path d="M77.85 121.373C81.3 121.373 84.15 118.523 84.15 115.072C84.15 114.172 83.85 113.272 83.55 112.521H72.15C71.85 113.272 71.55 114.172 71.55 115.072C71.55 118.673 74.4 121.373 77.85 121.373Z" fill="url(#paint4_linear_1_859)"/>
<path d="M70.35 104.27C66.9 104.27 64.05 107.121 64.05 110.571C64.05 114.022 66.9 116.872 70.35 116.872C73.8 116.872 76.65 114.022 76.65 110.571C76.65 107.121 73.95 104.27 70.35 104.27Z" fill="url(#paint5_linear_1_859)"/>
<path d="M102.45 66.3128C107.669 66.3128 111.9 62.0811 111.9 56.861C111.9 51.6409 107.669 47.4092 102.45 47.4092C97.2309 47.4092 93 51.6409 93 56.861C93 62.0811 97.2309 66.3128 102.45 66.3128Z" fill="url(#paint6_linear_1_859)"/>
<path d="M90.75 0.750144C95.25 9.9019 85.05 18.9036 90.15 28.0554C90.3 28.2054 90.45 28.3555 90.6 28.3555H103.5C103.95 28.3555 104.25 27.9054 103.95 27.6053C99.45 18.4535 109.65 9.45182 104.55 0.300058C104.55 0.150029 104.4 0 104.1 0H91.2C90.75 0 90.45 0.450087 90.75 0.750144Z" fill="url(#paint7_linear_1_859)"/>
<path d="M87.75 85.9666C87.6 86.4167 87.6 87.0168 87.9 87.3168C99 102.17 93.6 116.722 87.75 132.175C81.9 147.628 75.9 163.531 87.9 179.435C88.2 179.735 88.5 179.885 88.95 179.885C104.25 179.885 119.7 179.885 135 179.885C135.45 179.885 135.9 179.585 136.2 179.134C136.35 178.684 136.35 178.084 136.05 177.784C124.95 162.931 130.5 148.379 136.2 132.926C139.5 124.074 142.95 114.922 142.95 105.77C142.95 99.0191 141.15 92.2678 136.05 85.5165C135.75 85.2164 135.45 85.0664 135 85.0664H88.95C88.5 85.2164 88.05 85.5165 87.75 85.9666Z" fill="url(#paint8_linear_1_859)"/>
<path d="M126.6 130.675C128.1 130.675 129.75 130.675 131.25 130.675C130.65 132.175 130.2 133.676 129.6 135.176C128.1 135.176 126.75 135.176 125.25 135.176C124.05 138.327 122.1 141.177 120.6 142.978C118.95 142.527 117.3 142.077 115.65 141.627C117.3 139.677 119.25 136.976 120.45 133.976C121.35 131.425 121.05 129.625 119.25 129.625C117.6 129.625 115.8 131.125 113.4 134.576C109.95 139.527 106.5 142.828 102.15 142.828C98.1 142.828 95.85 139.977 96.75 135.176C95.25 135.176 93.9 135.176 92.4 135.176C93 133.676 93.45 132.175 94.05 130.675C95.4 130.675 96.75 130.675 98.1 130.675C99.3 127.675 100.8 125.574 102 124.074C103.5 124.524 105.15 124.974 106.65 125.424C105.75 126.624 103.95 128.725 102.6 132.025C101.55 135.026 102.45 135.926 103.8 135.926C105.3 135.926 106.8 134.276 109.8 130.375C113.7 124.974 116.85 122.724 121.05 122.724C125.1 122.424 127.65 125.274 126.6 130.675Z" fill="url(#paint9_linear_1_859)"/>
<path d="M41.1 28.8053C40.95 29.1054 40.95 29.4054 41.1 29.5554C47.7 38.4071 44.55 47.2589 40.95 56.5606C37.5 65.8624 33.9 75.3142 41.1 84.9161C41.25 85.0661 41.55 85.2161 41.7 85.2161C50.85 85.2161 60.15 85.2161 69.3 85.2161C69.6 85.2161 69.9 85.0661 70.05 84.7661C70.2 84.466 70.2 84.1659 70.05 84.0159C63.45 75.1642 66.75 66.3125 70.2 57.1607C72.15 51.7597 74.25 46.3587 74.25 40.9576C74.25 36.9069 73.2 32.8561 70.05 28.8053C69.9 28.6553 69.6 28.5052 69.45 28.5052H41.85C41.55 28.3552 41.25 28.6553 41.1 28.8053Z" fill="url(#paint10_linear_1_859)"/>
<path d="M64.5 55.6604C65.4 55.6604 66.45 55.6604 67.35 55.6604C67.05 56.5606 66.75 57.4608 66.3 58.3609C65.4 58.3609 64.5 58.3609 63.75 58.3609C63 60.1613 61.8 61.9616 60.9 63.0118C59.85 62.7118 58.95 62.4117 57.9 62.2617C58.95 61.0614 60 59.5612 60.75 57.7608C61.35 56.2605 61.05 55.0603 60 55.0603C58.95 55.0603 57.9 55.9605 56.55 58.0609C54.45 61.0614 52.5 63.0118 49.8 63.0118C47.4 63.0118 46.05 61.3615 46.5 58.3609C45.6 58.3609 44.7 58.3609 43.95 58.3609C44.25 57.4608 44.55 56.5606 45 55.6604C45.75 55.6604 46.65 55.6604 47.4 55.6604C48.15 53.8601 49.05 52.5098 49.8 51.6096C50.7 51.9097 51.75 52.2097 52.65 52.3598C52.05 53.1099 51 54.3101 50.25 56.2605C49.65 58.0609 50.1 58.661 51 58.661C51.9 58.661 52.8 57.7608 54.6 55.3604C57 52.0597 58.8 50.8595 61.35 50.8595C63.6 50.7095 65.1 52.3598 64.5 55.6604Z" fill="url(#paint11_linear_1_859)"/>
<path d="M0 213.791C0 219.942 5.1 225.043 11.25 225.043H168.75C174.9 225.043 180 219.942 180 213.791V157.53H0V213.791Z" fill="url(#paint12_linear_1_859)"/>
<path d="M154.65 207.34C159.289 207.34 163.05 203.578 163.05 198.938C163.05 194.298 159.289 190.537 154.65 190.537C150.011 190.537 146.25 194.298 146.25 198.938C146.25 203.578 150.011 207.34 154.65 207.34Z" fill="url(#paint13_linear_1_859)"/>
<path d="M137.85 207.34C142.489 207.34 146.25 203.578 146.25 198.938C146.25 194.298 142.489 190.537 137.85 190.537C133.211 190.537 129.45 194.298 129.45 198.938C129.45 203.578 133.211 207.34 137.85 207.34Z" fill="white"/>
<path d="M16.5 192.487C17.4 192.337 19.2 192.187 20.85 192.187C22.95 192.187 24.15 192.337 25.35 193.087C26.4 193.687 27.15 194.737 27.15 196.088C27.15 197.438 26.4 198.638 24.75 199.238C26.55 199.688 27.75 201.039 27.75 202.989C27.75 204.339 27.15 205.54 26.25 206.14C25.2 207.04 23.25 207.49 20.25 207.49C18.6 207.49 17.25 207.34 16.5 207.19V192.487ZM19.8 198.338H21C22.8 198.338 23.7 197.588 23.7 196.538C23.7 195.338 22.8 194.737 21.3 194.737C20.55 194.737 20.1 194.737 19.8 194.888V198.338ZM19.8 205.089C20.1 205.089 20.55 205.089 21.15 205.089C22.65 205.089 24 204.489 24 202.839C24 201.339 22.65 200.739 21 200.739H19.8V205.089Z" fill="white"/>
<path d="M39 204.789C39 205.84 39 206.89 39.15 207.49H36L35.85 206.44C35.1 207.34 34.05 207.79 32.7 207.79C30.45 207.79 29.1 206.14 29.1 204.489C29.1 201.639 31.65 200.288 35.55 200.288V200.138C35.55 199.538 35.25 198.788 33.6 198.788C32.55 198.788 31.35 199.238 30.6 199.538L30 197.438C30.75 196.988 32.25 196.388 34.2 196.388C37.8 196.388 39 198.488 39 201.189V204.789ZM35.7 202.239C33.9 202.239 32.55 202.689 32.55 204.039C32.55 204.939 33.15 205.389 33.9 205.389C34.8 205.389 35.4 204.789 35.7 204.189C35.7 204.039 35.7 203.739 35.7 203.589V202.239Z" fill="white"/>
<path d="M41.85 199.989C41.85 198.638 41.85 197.438 41.7 196.538H44.7L44.85 198.038C45.3 197.288 46.35 196.238 48.3 196.238C50.55 196.238 52.2 197.738 52.2 201.039V207.49H48.75V201.339C48.75 199.989 48.3 198.938 47.1 198.938C46.2 198.938 45.6 199.538 45.3 200.139C45.15 200.289 45.15 200.739 45.15 201.039V207.34H41.7V199.989H41.85Z" fill="white"/>
<path d="M58.35 201.039C58.65 200.589 58.95 200.138 59.25 199.688L61.5 196.538H65.55L61.65 201.039L66.15 207.64H61.95L59.25 203.139L58.35 204.189V207.64H54.9V191.737H58.35V201.039Z" fill="white"/>
<path d="M82.65 206.89C81.9 207.19 80.55 207.64 78.6 207.64C74.4 207.64 71.1 204.94 71.1 199.989C71.1 195.188 74.25 192.037 79.05 192.037C81 192.037 82.2 192.487 82.65 192.637L82.2 194.288C81.45 193.987 80.4 193.687 79.2 193.687C75.6 193.687 73.35 195.938 73.35 199.989C73.35 203.739 75.45 206.14 79.2 206.14C80.4 206.14 81.6 205.84 82.35 205.54L82.65 206.89Z" fill="white"/>
<path d="M90.9 207.49L90.75 206.14C90.15 207.04 88.95 207.79 87.45 207.79C85.2 207.79 84.15 206.29 84.15 204.639C84.15 202.089 86.55 200.589 90.75 200.589V200.438C90.75 199.538 90.45 197.888 88.35 197.888C87.3 197.888 86.25 198.188 85.5 198.638L85.05 197.288C85.95 196.688 87.3 196.388 88.65 196.388C91.95 196.388 92.85 198.638 92.85 200.889V204.939C92.85 205.84 92.85 206.74 93 207.49H90.9ZM90.6 201.939C88.5 201.939 85.95 202.239 85.95 204.339C85.95 205.539 86.85 206.29 87.75 206.29C89.1 206.29 90 205.389 90.3 204.489C90.3 204.339 90.45 204.039 90.45 203.889V201.939H90.6Z" fill="white"/>
<path d="M95.7 199.989C95.7 198.788 95.7 197.588 95.55 196.538H97.35V198.638H97.5C97.95 197.138 99.15 196.238 100.5 196.238C100.8 196.238 100.95 196.238 101.1 196.238V198.038C100.95 198.038 100.65 198.038 100.5 198.038C99.15 198.038 98.1 199.088 97.8 200.589C97.8 200.889 97.65 201.189 97.65 201.489V207.34H95.7V199.989Z" fill="white"/>
<path d="M112.2 191.587V204.789C112.2 205.69 112.2 206.89 112.35 207.64H110.55L110.4 205.69C109.8 206.89 108.45 207.79 106.65 207.79C104.1 207.79 102 205.54 102 202.239C102 198.638 104.25 196.388 106.8 196.388C108.45 196.388 109.65 197.138 110.1 198.038V191.587H112.2ZM110.25 201.039C110.25 200.739 110.25 200.439 110.1 200.139C109.8 198.938 108.75 197.888 107.25 197.888C105.15 197.888 103.95 199.688 103.95 202.089C103.95 204.339 105 206.14 107.1 206.14C108.45 206.14 109.65 205.24 109.95 203.739C109.95 203.439 110.1 203.139 110.1 202.839V201.039H110.25Z" fill="white"/>
<path d="M87.75 85.9666C87.6 86.4167 87.6 87.0168 87.9 87.3168C99 102.17 93.6 116.722 87.75 132.175C81.9 147.628 75.9 163.531 87.9 179.435C88.2 179.735 88.5 179.885 88.95 179.885C104.25 179.885 119.7 179.885 135 179.885C135.45 179.885 135.9 179.585 136.2 179.134C136.35 178.684 136.35 178.084 136.05 177.784C124.95 162.931 130.5 148.379 136.2 132.926C139.5 124.074 142.95 114.922 142.95 105.77C142.95 99.0191 141.15 92.2678 136.05 85.5165C135.75 85.2164 135.45 85.0664 135 85.0664H88.95C88.5 85.2164 88.05 85.5165 87.75 85.9666Z" fill="url(#paint14_linear_1_859)"/>
</g>
<defs>
<linearGradient id="paint0_linear_1_859" x1="22.5" y1="255.047" x2="157.5" y2="255.047" gradientUnits="userSpaceOnUse">
<stop stop-color="#DFEFFF"/>
<stop offset="1" stop-color="#8AC5FF" stop-opacity="0.69"/>
</linearGradient>
<linearGradient id="paint1_linear_1_859" x1="90" y1="112.521" x2="90" y2="135.026" gradientUnits="userSpaceOnUse">
<stop stop-color="#44BBFE"/>
<stop offset="1" stop-color="#1E78FE"/>
</linearGradient>
<linearGradient id="paint2_linear_1_859" x1="0" y1="146.272" x2="180" y2="146.272" gradientUnits="userSpaceOnUse">
<stop stop-color="#DFEFFF"/>
<stop offset="1" stop-color="#8AC5FF"/>
</linearGradient>
<linearGradient id="paint3_linear_1_859" x1="95.8335" y1="123.768" x2="150.245" y2="123.768" gradientUnits="userSpaceOnUse">
<stop stop-color="#6F9EE6"/>
<stop offset="1" stop-color="#2F77D7"/>
</linearGradient>
<linearGradient id="paint4_linear_1_859" x1="71.584" y1="116.974" x2="84.2155" y2="116.974" gradientUnits="userSpaceOnUse">
<stop stop-color="#548CE0"/>
<stop offset="1" stop-color="#3F81D9"/>
</linearGradient>
<linearGradient id="paint5_linear_1_859" x1="70.35" y1="104.27" x2="70.35" y2="116.872" gradientUnits="userSpaceOnUse">
<stop stop-color="#FFCF53"/>
<stop offset="1" stop-color="#FF9900"/>
</linearGradient>
<linearGradient id="paint6_linear_1_859" x1="102.45" y1="47.4092" x2="102.45" y2="66.3128" gradientUnits="userSpaceOnUse">
<stop stop-color="#FFCF53"/>
<stop offset="1" stop-color="#FF9900"/>
</linearGradient>
<linearGradient id="paint7_linear_1_859" x1="97.35" y1="0" x2="97.35" y2="28.3555" gradientUnits="userSpaceOnUse">
<stop stop-color="#44BBFE"/>
<stop offset="1" stop-color="#1E78FE"/>
</linearGradient>
<linearGradient id="paint8_linear_1_859" x1="111.941" y1="180.035" x2="111.941" y2="85.2797" gradientUnits="userSpaceOnUse">
<stop stop-color="#F4AE39"/>
<stop offset="1" stop-color="#FADBAC"/>
</linearGradient>
<linearGradient id="paint9_linear_1_859" x1="111.93" y1="142.826" x2="111.93" y2="122.482" gradientUnits="userSpaceOnUse">
<stop stop-color="#FAE1B6"/>
<stop offset="1" stop-color="white"/>
</linearGradient>
<linearGradient id="paint10_linear_1_859" x1="55.5908" y1="28.4644" x2="55.5908" y2="85.2161" gradientUnits="userSpaceOnUse">
<stop stop-color="#44BBFE"/>
<stop offset="1" stop-color="#1E78FE"/>
</linearGradient>
<linearGradient id="paint11_linear_1_859" x1="55.6608" y1="62.9542" x2="55.6608" y2="50.7479" gradientUnits="userSpaceOnUse">
<stop stop-color="#C1D5F4"/>
<stop offset="1" stop-color="white"/>
</linearGradient>
<linearGradient id="paint12_linear_1_859" x1="90" y1="157.53" x2="90" y2="225.043" gradientUnits="userSpaceOnUse">
<stop stop-color="#44BBFE"/>
<stop offset="1" stop-color="#1E78FE"/>
</linearGradient>
<linearGradient id="paint13_linear_1_859" x1="146.25" y1="198.995" x2="163.125" y2="198.995" gradientUnits="userSpaceOnUse">
<stop stop-color="#D1E0F7"/>
<stop offset="1" stop-color="#BAD2F1"/>
</linearGradient>
<linearGradient id="paint14_linear_1_859" x1="111.955" y1="85.0664" x2="111.955" y2="179.885" gradientUnits="userSpaceOnUse">
<stop stop-color="#FFCF53"/>
<stop offset="1" stop-color="#FF9900"/>
</linearGradient>
<clipPath id="clip0_1_859">
<rect width="180" height="260" fill="white"/>
</clipPath>
</defs>
</svg>
