<svg width="79" height="92" viewBox="0 0 79 92" fill="none" xmlns="http://www.w3.org/2000/svg">
<g filter="url(#filter0_d_122_33)">
<path d="M31.7055 42V32.9214C31.7055 26.5956 36.8436 21.4343 43.2 21.4343V30.5128C43.2 36.8387 38.0354 42 31.7055 42Z" fill="url(#paint0_linear_122_33)"/>
<path d="M28.7922 35.9388V22.7841C28.7922 15.7171 23.0715 10 16 10V23.1547C16 30.2217 21.7207 35.9388 28.7922 35.9388Z" fill="url(#paint1_linear_122_33)"/>
<path d="M40.2848 16.4755C40.8399 14.1431 39.3979 11.8026 37.0641 11.2479C34.7302 10.6931 32.3883 12.1342 31.8332 14.4666C31.2781 16.7989 32.72 19.1394 35.0539 19.6942C37.3877 20.2489 39.7297 18.8078 40.2848 16.4755Z" fill="url(#paint2_linear_122_33)"/>
</g>
<defs>
<filter id="filter0_d_122_33" x="-19" y="-10" width="97.2" height="102" filterUnits="userSpaceOnUse" color-interpolation-filters="sRGB">
<feFlood flood-opacity="0" result="BackgroundImageFix"/>
<feColorMatrix in="SourceAlpha" type="matrix" values="0 0 0 0 0 0 0 0 0 0 0 0 0 0 0 0 0 0 127 0" result="hardAlpha"/>
<feOffset dy="15"/>
<feGaussianBlur stdDeviation="17.5"/>
<feComposite in2="hardAlpha" operator="out"/>
<feColorMatrix type="matrix" values="0 0 0 0 0.12549 0 0 0 0 0.486275 0 0 0 0 0.996078 0 0 0 0.1 0"/>
<feBlend mode="normal" in2="BackgroundImageFix" result="effect1_dropShadow_122_33"/>
<feBlend mode="normal" in="SourceGraphic" in2="effect1_dropShadow_122_33" result="shape"/>
</filter>
<linearGradient id="paint0_linear_122_33" x1="37.4527" y1="21.4343" x2="37.4527" y2="42" gradientUnits="userSpaceOnUse">
<stop stop-color="#44BBFE"/>
<stop offset="1" stop-color="#1E78FE"/>
</linearGradient>
<linearGradient id="paint1_linear_122_33" x1="22.3961" y1="10" x2="22.3961" y2="35.9388" gradientUnits="userSpaceOnUse">
<stop stop-color="#44BBFE"/>
<stop offset="1" stop-color="#1E78FE"/>
</linearGradient>
<linearGradient id="paint2_linear_122_33" x1="31.8332" y1="14.4666" x2="40.2842" y2="16.4779" gradientUnits="userSpaceOnUse">
<stop stop-color="#FFCF53"/>
<stop offset="1" stop-color="#FF9900"/>
</linearGradient>
</defs>
</svg>
