<svg width="48" height="48" viewBox="0 0 48 48" fill="none" xmlns="http://www.w3.org/2000/svg">
<rect width="48" height="48" rx="24" fill="#F7F7F7"/>
<path fill-rule="evenodd" clip-rule="evenodd" d="M16 23C16 19.134 19.134 16 23 16C26.866 16 30 19.134 30 23C30 24.8858 29.2543 26.5974 28.0417 27.8561C28.0074 27.8825 27.9744 27.9114 27.9429 27.9428C27.9115 27.9742 27.8826 28.0072 27.8562 28.0416C26.5975 29.2543 24.8858 30 23 30C19.134 30 16 26.866 16 23ZM28.6178 30.0318C27.0781 31.2635 25.125 32 23 32C18.0294 32 14 27.9706 14 23C14 18.0294 18.0294 14 23 14C27.9706 14 32 18.0294 32 23C32 25.125 31.2635 27.078 30.032 28.6176L33.7071 32.2928C34.0977 32.6833 34.0977 33.3165 33.7071 33.707C33.3166 34.0975 32.6834 34.0975 32.2929 33.707L28.6178 30.0318Z" fill="#0D1636"/>
</svg>
